HIERARCHY
ROOT root
{
	OFFSET	0	13.1	24.9
	CHANNELS 6  Xposition Yposition Zposition Xrotation Yrotation Zrotation
	JOINT spine_1
	{
		OFFSET	0	9.99999	0
		CHANNELS 3  Xrotation Yrotation Zrotation
		JOINT spine_2
		{
			OFFSET	0	112	-10
			CHANNELS 3  Xrotation Yrotation Zrotation
			JOINT spine_3
			{
				OFFSET	0	206.5	19.3
				CHANNELS 3  Xrotation Yrotation Zrotation
				JOINT spine_4
				{
					OFFSET	0	110.4	14.6
					CHANNELS 3  Xrotation Yrotation Zrotation
					JOINT neck_1
					{
						OFFSET	0	71.8	-50.3
						CHANNELS 3  Xrotation Yrotation Zrotation
						JOINT neck_2
						{
							OFFSET	0	86.2	-25.8
							CHANNELS 3  Xrotation Yrotation Zrotation
							JOINT head_ee
							{
								OFFSET	0	179.8	-8.7
								CHANNELS 3  Xrotation Yrotation Zrotation
								End Site
								{
									OFFSET	1	0	0
								}
							}
						}
					}
					JOINT left_clavicle
					{
						OFFSET	-43.2	22.4	-70.8
						CHANNELS 3  Xrotation Yrotation Zrotation
						JOINT left_shoulder
						{
							OFFSET	-93.9	-5.79999	48.7
							CHANNELS 3  Xrotation Yrotation Zrotation
							JOINT left_elbow
							{
								OFFSET	-291.4	-30.8	15.2
								CHANNELS 3  Xrotation Yrotation Zrotation
								JOINT left_lowarm_twist
								{
									OFFSET	-110.7	-3.89999	13.6
									CHANNELS 3  Xrotation Yrotation Zrotation
									JOINT left_hand
									{
										OFFSET	-110.7	-3.89999	13.6
										CHANNELS 3  Xrotation Yrotation Zrotation
										JOINT left_ee
										{
											OFFSET	-80.8	-5.10001	12.1
											CHANNELS 3  Xrotation Yrotation Zrotation
											End Site
											{
												OFFSET	1	0	0
											}
										}
									}
								}
							}
						}
					}
					JOINT right_clavicle
					{
						OFFSET	43.2	22.4	-70.8
						CHANNELS 3  Xrotation Yrotation Zrotation
						JOINT right_shoulder
						{
							OFFSET	93.9	-5.79999	48.7
							CHANNELS 3  Xrotation Yrotation Zrotation
							JOINT right_elbow
							{
								OFFSET	291.4	-30.8	15.2
								CHANNELS 3  Xrotation Yrotation Zrotation
								JOINT right_lowarm_twist
								{
									OFFSET	110.7	-3.89999	13.6
									CHANNELS 3  Xrotation Yrotation Zrotation
									JOINT right_hand
									{
										OFFSET	110.7	-3.89999	13.6
										CHANNELS 3  Xrotation Yrotation Zrotation
										JOINT right_ee
										{
											OFFSET	80.8	-5.10001	12.1
											CHANNELS 3  Xrotation Yrotation Zrotation
											End Site
											{
												OFFSET	1	0	0
											}
										}
									}
								}
							}
						}
					}
				}
			}
		}
	}
	JOINT left_hip
	{
		OFFSET	-82.8	-127.5	0.300001
		CHANNELS 3  Xrotation Yrotation Zrotation
		JOINT left_knee
		{
			OFFSET	-28.2	-396.7	2.2
			CHANNELS 3  Xrotation Yrotation Zrotation
			JOINT left_ankle
			{
				OFFSET	-11.7	-411.3	35.4
				CHANNELS 3  Xrotation Yrotation Zrotation
				JOINT left_toes
				{
					OFFSET	0	-60	-88.6
					CHANNELS 3  Xrotation Yrotation Zrotation
					JOINT left_foot_ee
					{
						OFFSET	-22.5	-16.5	-42.2
						CHANNELS 3  Xrotation Yrotation Zrotation
						End Site
						{
							OFFSET	1	0	0
						}
					}
				}
			}
		}
	}
	JOINT right_hip
	{
		OFFSET	82.8	-127.5	0.300001
		CHANNELS 3  Xrotation Yrotation Zrotation
		JOINT right_knee
		{
			OFFSET	28.2	-396.7	2.2
			CHANNELS 3  Xrotation Yrotation Zrotation
			JOINT right_ankle
			{
				OFFSET	11.7	-411.3	35.4
				CHANNELS 3  Xrotation Yrotation Zrotation
				JOINT right_toes
				{
					OFFSET	0	-60	-88.6
					CHANNELS 3  Xrotation Yrotation Zrotation
					JOINT right_foot_ee
					{
						OFFSET	22.5	-16.5	-42.2
						CHANNELS 3  Xrotation Yrotation Zrotation
						End Site
						{
							OFFSET	1	0	0
						}
					}
				}
			}
		}
	}
}
MOTION
Frames: 6
Frame Time: 0.02
2589.54 717.717 -797.436 -179.5 -54.9607 -176.093 0.177373 0.00254066 0.191663 0.177394 -0.00966046 0.191436 0.177368 -0.0491068 0.185282 0.177321 -0.0192287 0.190713 4.23289 3.36763 2.62789 4.25522 3.53301 3.16875 -0.0 0.0 -0.0 4.05494 -4.66914 7.56894 11.1286 -3.06867 66.5743 1.10101 -28.6076 0.280731 72.8004 -3.03601 -8.15299 1.53629 -9.06219 6.5372 -0.0 0.0 -0.0 8.47762 2.42298 -16.592 -38.8596 41.8641 -58.768 0.643686 17.6857 -0.100142 -57.0965 4.92402 -5.00165 -2.03941 15.1438 20.5266 0.0 0.0 0.0 4.17675 3.87527 2.76862 -1.27538 0.0504091 0.189229 29.1868 27.5978 -4.07942 32.8369 -0.0 -0.0 -0.0 0.0 -0.0 37.368 10.2325 -6.91403 -60.7451 2.28097 -8.60702 -6.01965 -10.9252 -0.892658 7.07551 -0.0 -0.0 0.0 0.0 0.0 
2610.14 713.946 -793.424 -179.509 -57.0583 -175.624 0.289326 -0.129556 -0.275367 0.289361 -0.111771 -0.283053 0.289942 -0.051303 -0.299966 0.289829 -0.098033 -0.288099 2.87723 3.20104 1.99955 2.89557 3.87981 2.45686 -0.0 0.0 -0.0 4.0396 -4.46492 7.55028 11.5258 -2.623 67.1715 1.24569 -31.6765 0.353406 72.1962 -2.97138 -8.11015 1.83851 -5.73865 10.0173 -0.0 0.0 -0.0 8.39315 1.12436 -16.4002 -39.8041 39.8783 -58.1847 0.57692 15.9495 -0.0808224 -57.8573 5.01755 -5.02949 -2.71847 13.2669 24.6509 0.0 0.0 0.0 3.14484 1.16449 3.46094 -1.64447 0.0642088 0.244191 30.7839 26.1333 -4.22665 33.0994 -0.0 -0.0 -0.0 0.0 -0.0 38.4836 13.2023 -9.62633 -54.1388 1.60141 -7.84889 -6.63798 -13.9272 -0.988824 6.5355 -0.0 -0.0 0.0 0.0 0.0 
2628.39 721.987 -791.863 -178.364 -58.5197 -174.159 0.630946 -0.254488 -0.587332 0.631112 -0.216599 -0.602335 0.633494 -0.0921819 -0.633422 0.632985 -0.19106 -0.610916 3.23468 3.11187 1.40519 3.25227 4.21028 1.78367 -0.0 0.0 -0.0 4.02175 -4.06383 7.53822 12.1845 -1.96651 68.1378 1.47994 -36.2435 0.484364 71.3338 -2.87993 -8.04783 2.16295 -3.47322 13.1975 -0.0 0.0 -0.0 7.68941 -0.521568 -14.9582 -41.9191 39.1453 -58.4296 0.537676 14.9146 -0.0703793 -58.9412 5.15138 -5.067 -3.47431 11.2697 29.4567 0.0 0.0 0.0 2.6762 -0.655436 3.78417 -2.39527 0.0911856 0.356258 30.9508 24.2793 -4.19865 33.5779 -0.0 -0.0 -0.0 0.0 -0.0 37.0504 18.3837 -12.8443 -45.0467 0.818644 -6.68984 -6.58826 -17.969 -0.990281 6.77431 -0.0 -0.0 0.0 0.0 0.0 
2647.66 718.508 -784.986 -176.792 -59.1841 -172.884 0.867443 -0.114307 -0.499051 0.867578 -0.0823195 -0.505313 0.868351 0.0179713 -0.511659 0.867991 -0.0630601 -0.508076 3.42534 2.96462 0.582417 3.44589 4.64949 0.8492 -0.0 0.0 -0.0 4.06075 -3.00504 7.67679 11.1626 -0.871472 68.9216 1.71081 -40.2773 0.627415 69.8638 -2.72624 -7.93846 2.65386 -1.56666 17.403 -0.0 0.0 -0.0 6.8809 -0.736123 -13.3561 -40.8311 39.2798 -58.7974 0.535743 14.8633 -0.0698825 -59.2144 5.18521 -5.07605 -3.96572 10.2133 32.817 0.0 0.0 0.0 2.24906 -2.54497 3.71288 -3.35567 0.123545 0.500097 31.3479 22.5913 -4.20462 34.1096 -0.0 -0.0 -0.0 0.0 -0.0 33.5993 23.9988 -12.9486 -32.0511 0.039944 -4.85497 -7.77802 -21.1334 -1.18383 6.61445 -0.0 -0.0 0.0 0.0 0.0 
2675.35 721.843 -768.657 -176.999 -58.5328 -173.17 1.11255 0.0635537 -0.500118 1.11268 0.0952483 -0.495061 1.11186 0.188136 -0.467721 1.11157 0.111908 -0.491563 4.5206 2.7888 -0.0436862 4.54729 4.83885 0.103002 -0.0 0.0 -0.0 4.1801 -2.94144 7.91752 11.2092 0.150782 68.9912 1.7669 -41.1909 0.664018 69.409 -2.67928 -7.90384 2.67616 0.655247 18.4511 -0.0 0.0 -0.0 5.90506 -1.13536 -11.4495 -40.2273 39.3694 -59.7442 0.50565 14.0625 -0.0623666 -60.7807 5.38001 -5.12482 -4.28652 9.64794 35.1393 0.0 0.0 0.0 1.91308 -3.28333 3.34601 -4.71576 0.165234 0.704663 30.5652 22.9358 -4.12439 34.5313 -0.0 -0.0 -0.0 0.0 -0.0 31.4626 26.0951 -12.7587 -21.398 -0.276406 -3.253 -8.41976 -21.1046 -1.28257 6.49436 -0.0 -0.0 0.0 0.0 0.0 
2689.0 714.417 -762.408 -175.179 -56.6197 -171.156 1.52131 0.078795 -0.847139 1.5217 0.132539 -0.840409 1.51975 0.285076 -0.801617 1.51888 0.154902 -0.836576 5.22744 3.23508 0.0897524 5.26244 5.45791 0.256505 -0.0 0.0 -0.0 4.3424 -2.85023 8.24498 12.6366 1.48205 68.1167 1.84082 -42.3571 0.713265 69.5342 -2.69217 -7.91341 2.5334 3.21784 18.4414 -0.0 0.0 -0.0 4.81012 -2.20067 -9.36327 -39.4761 41.0067 -61.3335 0.549667 15.2319 -0.0734976 -63.3844 5.70641 -5.19401 -4.53829 8.07789 36.4342 0.0 0.0 0.0 1.33195 -3.29731 2.7563 -4.15488 0.148632 0.620187 29.5436 24.5983 -4.04491 35.1335 -0.0 -0.0 -0.0 0.0 -0.0 31.5355 26.0845 -12.5086 -15.597 -0.322086 -2.36449 -7.45739 -19.4957 -1.1278 6.41856 -0.0 -0.0 0.0 0.0 0.0 
